<?xml version="1.0" encoding="utf-8"?>
<!-- Generator: Adobe Illustrator 24.0.0, SVG Export Plug-In . SVG Version: 6.00 Build 0)  -->
<svg version="1.1" id="Capa_1" xmlns="http://www.w3.org/2000/svg" xmlns:xlink="http://www.w3.org/1999/xlink" x="0px" y="0px"
	 viewBox="0 0 231.25 135.68" style="enable-background:new 0 0 231.25 135.68;" xml:space="preserve">
<style type="text/css">
	.st0{fill:url(#SVGID_1_);}
	.st1{fill:url(#SVGID_2_);}
	.st2{fill:url(#SVGID_3_);}
	.st3{fill:url(#SVGID_4_);}
	.st4{fill:url(#SVGID_5_);}
	.st5{font-family:'MyriadPro-Regular';}
	.st6{font-size:14.8586px;}
</style>
<linearGradient id="SVGID_1_" gradientUnits="userSpaceOnUse" x1="15.4733" y1="42.1736" x2="190.7043" y2="-23.985">
	<stop  offset="0" style="stop-color:#0B516E"/>
	<stop  offset="1" style="stop-color:#076684"/>
</linearGradient>
<path class="st0" d="M3.39,0.81H23.6v84.22H3.39V0.81z"/>
<linearGradient id="SVGID_2_" gradientUnits="userSpaceOnUse" x1="23.6926" y1="63.9436" x2="198.9236" y2="-2.215">
	<stop  offset="0" style="stop-color:#0B516E"/>
	<stop  offset="1" style="stop-color:#076684"/>
</linearGradient>
<path class="st1" d="M44.86,63.49c0.72,3.37,3.97,8.18,12.76,8.18c5.41,0,8.9-1.8,8.9-6.14c0-6.02-6.98-5.9-19.49-8.78
	c-9.15-2.17-18.29-6.02-18.29-19.25c0-14.44,10.47-21.18,27.31-21.18c15.76,0,25.87,6.02,29.12,16.84l-16.6,4.45
	c-1.2-4.09-5.41-6.62-11.55-6.62c-5.29,0-8.66,1.93-8.66,5.66c0,4.45,4.93,5.05,16,7.34c8.9,1.68,21.66,5.78,21.66,21.18
	c0,15.28-12.39,21.18-28.27,21.18c-12.39,0-26.95-3.49-30.2-18.29L44.86,63.49z"/>
<linearGradient id="SVGID_3_" gradientUnits="userSpaceOnUse" x1="33.0533" y1="88.7367" x2="208.2842" y2="22.5781">
	<stop  offset="0" style="stop-color:#0B516E"/>
	<stop  offset="1" style="stop-color:#076684"/>
</linearGradient>
<path class="st2" d="M107.32,73.24l-3.73,11.79H84.21l23.94-67.38h23.94l23.94,67.38h-19.73l-3.73-11.79H107.32z M124.76,48.45
	c-3.37-10.59-4.57-15.16-4.57-15.4h-0.48c-0.12,0.24-1.68,5.29-5.05,16.12L112.25,57h15.28L124.76,48.45z"/>
<linearGradient id="SVGID_4_" gradientUnits="userSpaceOnUse" x1="40.6616" y1="108.8885" x2="215.8926" y2="42.7299">
	<stop  offset="0" style="stop-color:#0B516E"/>
	<stop  offset="1" style="stop-color:#076684"/>
</linearGradient>
<path class="st3" d="M210.83,56.88V45.93h-0.36l-11.55,22.98h-12.03L175.1,44.72h-0.48v11.07v29.24h-18.41V17.65h23.22l8.9,16.85
	c3.13,5.78,5.41,10.83,5.54,10.83h0.48c0.24,0,2.65-5.05,5.78-10.95l8.66-16.73h21.18v67.38h-19.13V56.88z"/>
<linearGradient id="SVGID_5_" gradientUnits="userSpaceOnUse" x1="84.6317" y1="95.7327" x2="231.2535" y2="95.7327">
	<stop  offset="0" style="stop-color:#0B516E"/>
	<stop  offset="1" style="stop-color:#076684"/>
</linearGradient>
<rect x="84.63" y="94.62" class="st4" width="146.62" height="2.24"/>
<text transform="matrix(1 0 0 1 83.1544 118.1243)"><tspan x="0" y="0" class="st5 st6">Sabio Nacional Antúnez </tspan><tspan x="0" y="13" class="st5 st6">de Mayolo</tspan></text>
</svg>
